# xmcd CD database file
#
# Track frame offsets:
#	150
#	20736
#	43895
#	72446
#	91183
#	109712
#	127078
#	149392
#	168124
#	187186
#	209349
#	237081
#	263626
#	287933
#
# Disc length: 4062 seconds
#
# Revision: 0
# Processed by: cddbd v1.5.2PL0 Copyright (c) Steve Scherf et al.
# Submitted via: CDex 1.51
#
DISCID=d50fdc0e
DTITLE=Cassandra Wilson - Coming Forth By Day
DYEAR=2015
DGENRE=Jazz
TTITLE0=Don't Explain
TTITLE1=Billie's Blues
TTITLE2=Crazy He Calls Me
TTITLE3=You Go to My Head
TTITLE4=All Of Me
TTITLE5=The Way You Look Tonight
TTITLE6=Good Morning Heartache
TTITLE7=What a Little Moonlight Can Do
TTITLE8=These Foolish Things
TTITLE9=Strange Fruit
TTITLE10=I'll Be Seeing You
TTITLE11=Last Song (For Lester)
TTITLE12=The Mood That I'm In [Bonus Track]
TTITLE13=Them There Eyes [Bonus Track]
EXTD=YEAR: 2015
EXTT0=
EXTT1=
EXTT2=
EXTT3=
EXTT4=
EXTT5=
EXTT6=
EXTT7=
EXTT8=
EXTT9=
EXTT10=
EXTT11=
EXTT12=
EXTT13=
PLAYORDER=
